ffmpeg version n7.1.1-2-ga4065faa79 Copyright (c) 2000-2025 the FFmpeg developers
  built with gcc 13 (Ubuntu 13.3.0-6ubuntu2~24.04)
  configuration: --enable-gpl --enable-libx264 --enable-libopus --enable-libdatachannel --enable-sdl2
  libavutil      59. 39.100 / 59. 39.100
  libavcodec     61. 19.101 / 61. 19.101
  libavformat    61.  7.100 / 61.  7.100
  libavdevice    61.  3.100 / 61.  3.100
  libavfilter    10.  4.100 / 10.  4.100
  libswscale      8.  3.100 /  8.  3.100
  libswresample   5.  3.100 /  5.  3.100
  libpostproc    58.  3.100 / 58.  3.100
[x11grab @ 0x60b1e2506400] Stream #0: not enough frames to estimate rate; consider increasing probesize
Input #0, x11grab, from ':99.0+0,0':
  Duration: N/A, start: 1757024705.717747, bitrate: 1990656 kb/s
  Stream #0:0: Video: rawvideo (BGR[0] / 0x524742), bgr0, 1920x1080, 1990656 kb/s, 30 fps, 1000k tbr, 1000k tbn
[aist#1:0/pcm_s16le @ 0x60b1e252f800] Guessed Channel Layout: stereo
Input #1, alsa, from 'hw:Loopback,1,0':
  Duration: N/A, start: 1757024705.722705, bitrate: 1536 kb/s
  Stream #1:0: Audio: pcm_s16le, 48000 Hz, stereo, s16, 1536 kb/s
Stream mapping:
  Stream #0:0 -> #0:0 (rawvideo (native) -> h264 (libx264))
  Stream #1:0 -> #0:1 (pcm_s16le (native) -> opus (libopus))
Press [q] to stop, [?] for help
[libx264 @ 0x60b1e250de80] using cpu capabilities: MMX2 SSE2Fast SSSE3 SSE4.2 AVX FMA3 BMI2 AVX2
[libx264 @ 0x60b1e250de80] profile Constrained Baseline, level 4.0, 4:2:0, 8-bit
[libx264 @ 0x60b1e250de80] 264 - core 164 r3108 31e19f9 - H.264/MPEG-4 AVC codec - Copyleft 2003-2023 - http://www.videolan.org/x264.html - options: cabac=0 ref=1 deblock=0:0:0 analyse=0:0 me=dia subme=0 psy=1 psy_rd=1.00:0.00 mixed_ref=0 me_range=16 chroma_me=1 trellis=0 8x8dct=0 cqm=0 deadzone=21,11 fast_pskip=1 chroma_qp_offset=0 threads=4 lookahead_threads=4 sliced_threads=1 slices=4 nr=0 decimate=1 interlaced=0 bluray_compat=0 constrained_intra=0 bframes=0 weightp=0 keyint=30 keyint_min=16 scenecut=0 intra_refresh=0 rc_lookahead=0 rc=cbr mbtree=0 bitrate=2000 ratetol=1.0 qcomp=0.60 qpmin=0 qpmax=69 qpstep=4 vbv_maxrate=2000 vbv_bufsize=1000 nal_hrd=none filler=0 ip_ratio=1.40 aq=0
Output #0, rtsp, to 'rtsp://127.0.0.1:8554/mystream':
  Metadata:
    encoder         : Lavf61.7.100
  Stream #0:0: Video: h264, yuv420p(tv, progressive), 1920x1080, q=2-31, 2000 kb/s, 30 fps, 90k tbn
      Metadata:
        encoder         : Lavc61.19.101 libx264
      Side data:
        cpb: bitrate max/min/avg: 2000000/0/2000000 buffer size: 1000000 vbv_delay: N/A
  Stream #0:1: Audio: opus, 48000 Hz, stereo, s16, 128 kb/s
      Metadata:
        encoder         : Lavc61.19.101 libopus
frame=   15 fps=0.0 q=1.0 size=N/A time=00:00:00.47 bitrate=N/A speed=0.955x    frame=   30 fps= 30 q=0.0 size=N/A time=00:00:00.97 bitrate=N/A speed=0.977x    frame=   44 fps= 29 q=0.0 size=N/A time=00:00:01.47 bitrate=N/A speed=0.984x    frame=   60 fps= 30 q=0.0 size=N/A time=00:00:01.99 bitrate=N/A speed=0.998x    frame=   75 fps= 30 q=0.0 size=N/A time=00:00:02.49 bitrate=N/A speed=0.998x    frame=   89 fps= 30 q=0.0 size=N/A time=00:00:02.97 bitrate=N/A speed=0.992x    frame=  105 fps= 30 q=0.0 size=N/A time=00:00:03.47 bitrate=N/A speed=0.993x    frame=  120 fps= 30 q=0.0 size=N/A time=00:00:03.99 bitrate=N/A speed=0.999x    frame=  134 fps= 30 q=0.0 size=N/A time=00:00:04.47 bitrate=N/A speed=0.994x    frame=  150 fps= 30 q=0.0 size=N/A time=00:00:04.99 bitrate=N/A speed=0.999x    frame=  165 fps= 30 q=0.0 size=N/A time=00:00:05.49 bitrate=N/A speed=0.999x    frame=  180 fps= 30 q=0.0 size=N/A time=00:00:05.99 bitrate=N/A speed=0.999x    frame=  195 fps= 30 q=0.0 size=N/A time=00:00:06.47 bitrate=N/A speed=0.996x    frame=  210 fps= 30 q=0.0 size=N/A time=00:00:06.99 bitrate=N/A speed=0.999x    frame=  225 fps= 30 q=0.0 size=N/A time=00:00:07.47 bitrate=N/A speed=0.997x    frame=  240 fps= 30 q=0.0 size=N/A time=00:00:07.97 bitrate=N/A speed=0.997x    frame=  255 fps= 30 q=0.0 size=N/A time=00:00:08.49 bitrate=N/A speed=0.999x    frame=  270 fps= 30 q=0.0 size=N/A time=00:00:08.99 bitrate=N/A speed=0.999x    frame=  284 fps= 30 q=0.0 size=N/A time=00:00:09.49 bitrate=N/A speed=0.999x    frame=  300 fps= 30 q=0.0 size=N/A time=00:00:09.97 bitrate=N/A speed=0.997x    frame=  315 fps= 30 q=0.0 size=N/A time=00:00:10.49 bitrate=N/A speed=0.999x    frame=  330 fps= 30 q=0.0 size=N/A time=00:00:10.99 bitrate=N/A speed=0.999x    frame=  345 fps= 30 q=0.0 size=N/A time=00:00:11.49 bitrate=N/A speed=0.999x    frame=  360 fps= 30 q=0.0 size=N/A time=00:00:11.99 bitrate=N/A speed=0.999x    frame=  375 fps= 30 q=0.0 size=N/A time=00:00:12.47 bitrate=N/A speed=0.998x    frame=  390 fps= 30 q=0.0 size=N/A time=00:00:12.99 bitrate=N/A speed=0.999x    frame=  405 fps= 30 q=0.0 size=N/A time=00:00:13.47 bitrate=N/A speed=0.998x    frame=  420 fps= 30 q=0.0 size=N/A time=00:00:13.99 bitrate=N/A speed=0.999x    frame=  435 fps= 30 q=0.0 size=N/A time=00:00:14.49 bitrate=N/A speed=0.999x    frame=  450 fps= 30 q=0.0 size=N/A time=00:00:14.99 bitrate=N/A speed=0.999x    frame=  465 fps= 30 q=0.0 size=N/A time=00:00:15.49 bitrate=N/A speed=0.999x    frame=  480 fps= 30 q=0.0 size=N/A time=00:00:15.99 bitrate=N/A speed=0.999x    frame=  495 fps= 30 q=0.0 size=N/A time=00:00:16.49 bitrate=N/A speed=   1x    frame=  510 fps= 30 q=0.0 size=N/A time=00:00:16.99 bitrate=N/A speed=   1x    frame=  525 fps= 30 q=0.0 size=N/A time=00:00:17.47 bitrate=N/A speed=0.998x    frame=  540 fps= 30 q=0.0 size=N/A time=00:00:17.99 bitrate=N/A speed=   1x    frame=  555 fps= 30 q=0.0 size=N/A time=00:00:18.49 bitrate=N/A speed=   1x    frame=  570 fps= 30 q=0.0 size=N/A time=00:00:18.99 bitrate=N/A speed=   1x    frame=  585 fps= 30 q=0.0 size=N/A time=00:00:19.49 bitrate=N/A speed=   1x    frame=  600 fps= 30 q=0.0 size=N/A time=00:00:19.99 bitrate=N/A speed=   1x    frame=  615 fps= 30 q=0.0 size=N/A time=00:00:20.49 bitrate=N/A speed=   1x    frame=  630 fps= 30 q=0.0 size=N/A time=00:00:20.99 bitrate=N/A speed=   1x    frame=  645 fps= 30 q=0.0 size=N/A time=00:00:21.49 bitrate=N/A speed=   1x    frame=  660 fps= 30 q=0.0 size=N/A time=00:00:21.99 bitrate=N/A speed=   1x    frame=  675 fps= 30 q=0.0 size=N/A time=00:00:22.49 bitrate=N/A speed=   1x    frame=  690 fps= 30 q=0.0 size=N/A time=00:00:22.99 bitrate=N/A speed=   1x    frame=  705 fps= 30 q=0.0 size=N/A time=00:00:23.49 bitrate=N/A speed=   1x    [x11grab @ 0x60b1e2506400] Failed to query xcb pointer
[in#0/x11grab @ 0x60b1e2506200] Error during demuxing: Generic error in an external library
[out#0/rtsp @ 0x60b1e252fbc0] video:183KiB audio:4KiB subtitle:0KiB other streams:0KiB global headers:0KiB muxing overhead: unknown
frame=  707 fps= 29 q=0.0 Lsize=N/A time=00:00:23.60 bitrate=N/A speed=0.983x    
[libx264 @ 0x60b1e250de80] frame I:24    Avg QP: 1.25  size:  6304
[libx264 @ 0x60b1e250de80] frame P:683   Avg QP: 0.12  size:    52
[libx264 @ 0x60b1e250de80] mb I  I16..4: 100.0%  0.0%  0.0%
[libx264 @ 0x60b1e250de80] mb P  I16..4:  0.0%  0.0%  0.0%  P16..4:  0.0%  0.0%  0.0%  0.0%  0.0%    skip:100.0%
[libx264 @ 0x60b1e250de80] coded y,uvDC,uvAC intra: 0.0% 0.0% 0.0% inter: 0.0% 0.0% 0.0%
[libx264 @ 0x60b1e250de80] i16 v,h,dc,p: 94%  0%  6%  0%
[libx264 @ 0x60b1e250de80] i8c dc,h,v,p: 100%  0%  0%  0%
[libx264 @ 0x60b1e250de80] kb/s:63.41
Exiting normally, received signal 2.
ffmpeg version n7.1.1-2-ga4065faa79 Copyright (c) 2000-2025 the FFmpeg developers
  built with gcc 13 (Ubuntu 13.3.0-6ubuntu2~24.04)
  configuration: --enable-gpl --enable-libx264 --enable-libopus --enable-libdatachannel --enable-sdl2
  libavutil      59. 39.100 / 59. 39.100
  libavcodec     61. 19.101 / 61. 19.101
  libavformat    61.  7.100 / 61.  7.100
  libavdevice    61.  3.100 / 61.  3.100
  libavfilter    10.  4.100 / 10.  4.100
  libswscale      8.  3.100 /  8.  3.100
  libswresample   5.  3.100 /  5.  3.100
  libpostproc    58.  3.100 / 58.  3.100
-vsync is deprecated. Use -fps_mode
[x11grab @ 0x623e0bd46840] Stream #0: not enough frames to estimate rate; consider increasing probesize
Input #0, x11grab, from ':99.0+0,0':
  Duration: N/A, start: 1757026444.574499, bitrate: 1990656 kb/s
  Stream #0:0: Video: rawvideo (BGR[0] / 0x524742), bgr0, 1920x1080, 1990656 kb/s, 30 fps, 1000k tbr, 1000k tbn
[aist#1:0/pcm_s16le @ 0x623e0bd6fd80] Guessed Channel Layout: stereo
Input #1, alsa, from 'hw:Loopback,1,0':
  Duration: N/A, start: 1757026444.579704, bitrate: 1536 kb/s
  Stream #1:0: Audio: pcm_s16le, 48000 Hz, stereo, s16, 1536 kb/s
Stream mapping:
  Stream #0:0 -> #0:0 (rawvideo (native) -> h264 (libx264))
  Stream #1:0 -> #0:1 (pcm_s16le (native) -> opus (libopus))
Press [q] to stop, [?] for help
[libx264 @ 0x623e0bd4e580] using cpu capabilities: MMX2 SSE2Fast SSSE3 SSE4.2 AVX FMA3 BMI2 AVX2
[libx264 @ 0x623e0bd4e580] profile Constrained Baseline, level 4.0, 4:2:0, 8-bit
[libx264 @ 0x623e0bd4e580] 264 - core 164 r3108 31e19f9 - H.264/MPEG-4 AVC codec - Copyleft 2003-2023 - http://www.videolan.org/x264.html - options: cabac=0 ref=1 deblock=0:0:0 analyse=0:0 me=dia subme=0 psy=1 psy_rd=1.00:0.00 mixed_ref=0 me_range=16 chroma_me=1 trellis=0 8x8dct=0 cqm=0 deadzone=21,11 fast_pskip=1 chroma_qp_offset=0 threads=4 lookahead_threads=4 sliced_threads=1 slices=4 nr=0 decimate=1 interlaced=0 bluray_compat=0 constrained_intra=0 bframes=0 weightp=0 keyint=30 keyint_min=16 scenecut=0 intra_refresh=0 rc_lookahead=0 rc=cbr mbtree=0 bitrate=2500 ratetol=1.0 qcomp=0.60 qpmin=0 qpmax=69 qpstep=4 vbv_maxrate=2500 vbv_bufsize=1250 nal_hrd=none filler=0 ip_ratio=1.40 aq=0
Output #0, rtsp, to 'rtsp://127.0.0.1:8554/mystream':
  Metadata:
    encoder         : Lavf61.7.100
  Stream #0:0: Video: h264, yuv420p(tv, progressive), 1920x1080, q=2-31, 2500 kb/s, 30 fps, 90k tbn
      Metadata:
        encoder         : Lavc61.19.101 libx264
      Side data:
        cpb: bitrate max/min/avg: 2500000/0/2500000 buffer size: 1250000 vbv_delay: N/A
  Stream #0:1: Audio: opus, 48000 Hz, stereo, s16, 128 kb/s
      Metadata:
        encoder         : Lavc61.19.101 libopus
frame=   15 fps=0.0 q=0.0 size=N/A time=00:00:00.47 bitrate=N/A speed=0.953x    frame=   30 fps= 30 q=0.0 size=N/A time=00:00:00.97 bitrate=N/A speed=0.977x    frame=   46 fps= 31 q=0.0 size=N/A time=00:00:01.47 bitrate=N/A speed=0.984x    frame=   61 fps= 30 q=0.0 size=N/A time=00:00:01.99 bitrate=N/A speed=0.998x    frame=   76 fps= 30 q=0.0 size=N/A time=00:00:02.47 bitrate=N/A speed=0.99x    frame=   90 fps= 30 q=0.0 size=N/A time=00:00:02.97 bitrate=N/A speed=0.992x    frame=  106 fps= 30 q=0.0 size=N/A time=00:00:03.49 bitrate=N/A speed=0.999x    frame=  120 fps= 30 q=0.0 size=N/A time=00:00:03.99 bitrate=N/A speed=0.999x    frame=  136 fps= 30 q=0.0 size=N/A time=00:00:04.49 bitrate=N/A speed=0.999x    frame=  150 fps= 30 q=0.0 size=N/A time=00:00:04.99 bitrate=N/A speed=0.999x    frame=  165 fps= 30 q=0.0 size=N/A time=00:00:05.47 bitrate=N/A speed=0.995x    frame=  180 fps= 30 q=0.0 size=N/A time=00:00:05.97 bitrate=N/A speed=0.996x    frame=  196 fps= 30 q=0.0 size=N/A time=00:00:06.49 bitrate=N/A speed=0.999x    frame=  211 fps= 30 q=0.0 size=N/A time=00:00:06.99 bitrate=N/A speed=0.999x    frame=  226 fps= 30 q=0.0 size=N/A time=00:00:07.49 bitrate=N/A speed=0.999x    frame=  240 fps= 30 q=0.0 size=N/A time=00:00:07.97 bitrate=N/A speed=0.997x    frame=  256 fps= 30 q=0.0 size=N/A time=00:00:08.49 bitrate=N/A speed=0.999x    frame=  271 fps= 30 q=0.0 size=N/A time=00:00:08.99 bitrate=N/A speed=0.999x    frame=  286 fps= 30 q=0.0 size=N/A time=00:00:09.49 bitrate=N/A speed=0.999x    frame=  301 fps= 30 q=0.0 size=N/A time=00:00:09.99 bitrate=N/A speed=0.999x    frame=  316 fps= 30 q=0.0 size=N/A time=00:00:10.49 bitrate=N/A speed=0.999x    frame=  331 fps= 30 q=0.0 size=N/A time=00:00:10.99 bitrate=N/A speed=0.999x    frame=  346 fps= 30 q=0.0 size=N/A time=00:00:11.47 bitrate=N/A speed=0.998x    frame=  361 fps= 30 q=0.0 size=N/A time=00:00:11.97 bitrate=N/A speed=0.998x    frame=  376 fps= 30 q=0.0 size=N/A time=00:00:12.49 bitrate=N/A speed=0.999x    frame=  391 fps= 30 q=0.0 size=N/A time=00:00:12.99 bitrate=N/A speed=0.999x    frame=  406 fps= 30 q=0.0 size=N/A time=00:00:13.49 bitrate=N/A speed=0.999x    frame=  421 fps= 30 q=0.0 size=N/A time=00:00:13.99 bitrate=N/A speed=0.999x    frame=  436 fps= 30 q=0.0 size=N/A time=00:00:14.49 bitrate=N/A speed=0.999x    frame=  451 fps= 30 q=0.0 size=N/A time=00:00:14.99 bitrate=N/A speed=0.999x    frame=  466 fps= 30 q=0.0 size=N/A time=00:00:15.49 bitrate=N/A speed=0.999x    frame=  481 fps= 30 q=0.0 size=N/A time=00:00:15.99 bitrate=N/A speed=0.999x    frame=  495 fps= 30 q=0.0 size=N/A time=00:00:16.49 bitrate=N/A speed=0.999x    frame=  511 fps= 30 q=0.0 size=N/A time=00:00:16.99 bitrate=N/A speed=0.999x    frame=  526 fps= 30 q=0.0 size=N/A time=00:00:17.49 bitrate=N/A speed=0.999x    frame=  541 fps= 30 q=0.0 size=N/A time=00:00:17.99 bitrate=N/A speed=0.999x    frame=  556 fps= 30 q=0.0 size=N/A time=00:00:18.49 bitrate=N/A speed=0.999x    frame=  571 fps= 30 q=0.0 size=N/A time=00:00:18.99 bitrate=N/A speed=0.999x    frame=  586 fps= 30 q=0.0 size=N/A time=00:00:19.49 bitrate=N/A speed=0.999x    frame=  601 fps= 30 q=0.0 size=N/A time=00:00:19.99 bitrate=N/A speed=0.999x    frame=  616 fps= 30 q=0.0 size=N/A time=00:00:20.49 bitrate=N/A speed=0.999x    frame=  631 fps= 30 q=0.0 size=N/A time=00:00:20.99 bitrate=N/A speed=0.999x    frame=  646 fps= 30 q=0.0 size=N/A time=00:00:21.49 bitrate=N/A speed=   1x    frame=  661 fps= 30 q=0.0 size=N/A time=00:00:21.99 bitrate=N/A speed=   1x    frame=  676 fps= 30 q=0.0 size=N/A time=00:00:22.49 bitrate=N/A speed=   1x    frame=  691 fps= 30 q=0.0 size=N/A time=00:00:22.99 bitrate=N/A speed=   1x    frame=  706 fps= 30 q=0.0 size=N/A time=00:00:23.49 bitrate=N/A speed=   1x    frame=  721 fps= 30 q=0.0 size=N/A time=00:00:23.99 bitrate=N/A speed=   1x    frame=  736 fps= 30 q=0.0 size=N/A time=00:00:24.49 bitrate=N/A speed=   1x    frame=  751 fps= 30 q=0.0 size=N/A time=00:00:24.99 bitrate=N/A speed=   1x    frame=  766 fps= 30 q=0.0 size=N/A time=00:00:25.49 bitrate=N/A speed=   1x    frame=  781 fps= 30 q=0.0 size=N/A time=00:00:25.99 bitrate=N/A speed=   1x    frame=  796 fps= 30 q=0.0 size=N/A time=00:00:26.49 bitrate=N/A speed=   1x    frame=  811 fps= 30 q=0.0 size=N/A time=00:00:26.99 bitrate=N/A speed=   1x    frame=  826 fps= 30 q=0.0 size=N/A time=00:00:27.49 bitrate=N/A speed=   1x    frame=  842 fps= 30 q=0.0 size=N/A time=00:00:27.99 bitrate=N/A dup=1 drop=0 speed=   1x    frame=  857 fps= 30 q=0.0 size=N/A time=00:00:28.49 bitrate=N/A dup=1 drop=0 speed=   1x    frame=  872 fps= 30 q=0.0 size=N/A time=00:00:28.99 bitrate=N/A dup=1 drop=0 speed=   1x    frame=  887 fps= 30 q=0.0 size=N/A time=00:00:29.49 bitrate=N/A dup=1 drop=0 speed=   1x    frame=  902 fps= 30 q=0.0 size=N/A time=00:00:29.99 bitrate=N/A dup=1 drop=0 speed=   1x    frame=  917 fps= 30 q=0.0 size=N/A time=00:00:30.49 bitrate=N/A dup=1 drop=0 speed=   1x    frame=  932 fps= 30 q=0.0 size=N/A time=00:00:30.99 bitrate=N/A dup=1 drop=0 speed=   1x    frame=  947 fps= 30 q=0.0 size=N/A time=00:00:31.49 bitrate=N/A dup=1 drop=0 speed=   1x    frame=  962 fps= 30 q=0.0 size=N/A time=00:00:31.99 bitrate=N/A dup=1 drop=0 speed=   1x    frame=  977 fps= 30 q=0.0 size=N/A time=00:00:32.49 bitrate=N/A dup=1 drop=0 speed=   1x    frame=  992 fps= 30 q=0.0 size=N/A time=00:00:32.99 bitrate=N/A dup=1 drop=0 speed=   1x    frame= 1007 fps= 30 q=0.0 size=N/A time=00:00:33.49 bitrate=N/A dup=1 drop=0 speed=   1x    frame= 1022 fps= 30 q=0.0 size=N/A time=00:00:33.99 bitrate=N/A dup=1 drop=0 speed=   1x    frame= 1037 fps= 30 q=0.0 size=N/A time=00:00:34.49 bitrate=N/A dup=1 drop=0 speed=   1x    frame= 1052 fps= 30 q=0.0 size=N/A time=00:00:34.99 bitrate=N/A dup=1 drop=0 speed=   1x    frame= 1067 fps= 30 q=0.0 size=N/A time=00:00:35.49 bitrate=N/A dup=1 drop=0 speed=   1x    frame= 1082 fps= 30 q=0.0 size=N/A time=00:00:35.99 bitrate=N/A dup=1 drop=0 speed=   1x    frame= 1097 fps= 30 q=0.0 size=N/A time=00:00:36.49 bitrate=N/A dup=1 drop=0 speed=   1x    frame= 1112 fps= 30 q=0.0 size=N/A time=00:00:36.99 bitrate=N/A dup=1 drop=0 speed=   1x    frame= 1127 fps= 30 q=0.0 size=N/A time=00:00:37.49 bitrate=N/A dup=1 drop=0 speed=   1x    frame= 1142 fps= 30 q=0.0 size=N/A time=00:00:37.99 bitrate=N/A dup=1 drop=0 speed=   1x    frame= 1157 fps= 30 q=0.0 size=N/A time=00:00:38.49 bitrate=N/A dup=1 drop=0 speed=   1x    frame= 1172 fps= 30 q=0.0 size=N/A time=00:00:38.99 bitrate=N/A dup=1 drop=0 speed=   1x    frame= 1187 fps= 30 q=0.0 size=N/A time=00:00:39.49 bitrate=N/A dup=1 drop=0 speed=   1x    frame= 1202 fps= 30 q=0.0 size=N/A time=00:00:39.99 bitrate=N/A dup=1 drop=0 speed=   1x    frame= 1217 fps= 30 q=0.0 size=N/A time=00:00:40.49 bitrate=N/A dup=1 drop=0 speed=   1x    frame= 1232 fps= 30 q=0.0 size=N/A time=00:00:40.99 bitrate=N/A dup=1 drop=0 speed=   1x    frame= 1247 fps= 30 q=0.0 size=N/A time=00:00:41.49 bitrate=N/A dup=1 drop=0 speed=   1x    frame= 1262 fps= 30 q=0.0 size=N/A time=00:00:41.99 bitrate=N/A dup=1 drop=0 speed=   1x    frame= 1277 fps= 30 q=0.0 size=N/A time=00:00:42.49 bitrate=N/A dup=1 drop=0 speed=   1x    frame= 1292 fps= 30 q=0.0 size=N/A time=00:00:42.99 bitrate=N/A dup=1 drop=0 speed=   1x    frame= 1307 fps= 30 q=0.0 size=N/A time=00:00:43.49 bitrate=N/A dup=1 drop=0 speed=   1x    frame= 1322 fps= 30 q=0.0 size=N/A time=00:00:43.99 bitrate=N/A dup=1 drop=0 speed=   1x    frame= 1337 fps= 30 q=0.0 size=N/A time=00:00:44.49 bitrate=N/A dup=1 drop=0 speed=   1x    frame= 1352 fps= 30 q=0.0 size=N/A time=00:00:44.99 bitrate=N/A dup=1 drop=0 speed=   1x    frame= 1367 fps= 30 q=0.0 size=N/A time=00:00:45.49 bitrate=N/A dup=1 drop=0 speed=   1x    frame= 1382 fps= 30 q=0.0 size=N/A time=00:00:45.99 bitrate=N/A dup=1 drop=0 speed=   1x    frame= 1397 fps= 30 q=0.0 size=N/A time=00:00:46.49 bitrate=N/A dup=1 drop=0 speed=   1x    frame= 1412 fps= 30 q=0.0 size=N/A time=00:00:46.99 bitrate=N/A dup=1 drop=0 speed=   1x    frame= 1427 fps= 30 q=0.0 size=N/A time=00:00:47.49 bitrate=N/A dup=1 drop=0 speed=   1x    frame= 1442 fps= 30 q=0.0 size=N/A time=00:00:47.99 bitrate=N/A dup=1 drop=0 speed=   1x    frame= 1457 fps= 30 q=0.0 size=N/A time=00:00:48.49 bitrate=N/A dup=1 drop=0 speed=   1x    frame= 1472 fps= 30 q=0.0 size=N/A time=00:00:48.99 bitrate=N/A dup=1 drop=0 speed=   1x    frame= 1487 fps= 30 q=0.0 size=N/A time=00:00:49.49 bitrate=N/A dup=1 drop=0 speed=   1x    ffmpeg version n7.1.1-2-ga4065faa79 Copyright (c) 2000-2025 the FFmpeg developers
  built with gcc 13 (Ubuntu 13.3.0-6ubuntu2~24.04)
  configuration: --enable-gpl --enable-libx264 --enable-libopus --enable-libdatachannel --enable-sdl2
  libavutil      59. 39.100 / 59. 39.100
  libavcodec     61. 19.101 / 61. 19.101
  libavformat    61.  7.100 / 61.  7.100
  libavdevice    61.  3.100 / 61.  3.100
  libavfilter    10.  4.100 / 10.  4.100
  libswscale      8.  3.100 /  8.  3.100
  libswresample   5.  3.100 /  5.  3.100
  libpostproc    58.  3.100 / 58.  3.100
-vsync is deprecated. Use -fps_mode
[x11grab @ 0x56d97d6df840] Stream #0: not enough frames to estimate rate; consider increasing probesize
Input #0, x11grab, from ':99.0+0,0':
  Duration: N/A, start: 1757026505.377911, bitrate: 1990656 kb/s
  Stream #0:0: Video: rawvideo (BGR[0] / 0x524742), bgr0, 1920x1080, 1990656 kb/s, 30 fps, 1000k tbr, 1000k tbn
[aist#1:0/pcm_s16le @ 0x56d97d708d80] Guessed Channel Layout: stereo
Input #1, alsa, from 'hw:Loopback,1,0':
  Duration: N/A, start: 1757026505.381719, bitrate: 1536 kb/s
  Stream #1:0: Audio: pcm_s16le, 48000 Hz, stereo, s16, 1536 kb/s
Stream mapping:
  Stream #0:0 -> #0:0 (rawvideo (native) -> h264 (libx264))
  Stream #1:0 -> #0:1 (pcm_s16le (native) -> opus (libopus))
Press [q] to stop, [?] for help
[libx264 @ 0x56d97d6e7580] using cpu capabilities: MMX2 SSE2Fast SSSE3 SSE4.2 AVX FMA3 BMI2 AVX2
[libx264 @ 0x56d97d6e7580] profile Constrained Baseline, level 4.0, 4:2:0, 8-bit
[libx264 @ 0x56d97d6e7580] 264 - core 164 r3108 31e19f9 - H.264/MPEG-4 AVC codec - Copyleft 2003-2023 - http://www.videolan.org/x264.html - options: cabac=0 ref=1 deblock=0:0:0 analyse=0:0 me=dia subme=0 psy=1 psy_rd=1.00:0.00 mixed_ref=0 me_range=16 chroma_me=1 trellis=0 8x8dct=0 cqm=0 deadzone=21,11 fast_pskip=1 chroma_qp_offset=0 threads=4 lookahead_threads=4 sliced_threads=1 slices=4 nr=0 decimate=1 interlaced=0 bluray_compat=0 constrained_intra=0 bframes=0 weightp=0 keyint=30 keyint_min=16 scenecut=0 intra_refresh=0 rc_lookahead=0 rc=cbr mbtree=0 bitrate=2500 ratetol=1.0 qcomp=0.60 qpmin=0 qpmax=69 qpstep=4 vbv_maxrate=2500 vbv_bufsize=1250 nal_hrd=none filler=0 ip_ratio=1.40 aq=0
Output #0, rtsp, to 'rtsp://127.0.0.1:8554/mystream':
  Metadata:
    encoder         : Lavf61.7.100
  Stream #0:0: Video: h264, yuv420p(tv, progressive), 1920x1080, q=2-31, 2500 kb/s, 30 fps, 90k tbn
      Metadata:
        encoder         : Lavc61.19.101 libx264
      Side data:
        cpb: bitrate max/min/avg: 2500000/0/2500000 buffer size: 1250000 vbv_delay: N/A
  Stream #0:1: Audio: opus, 48000 Hz, stereo, s16, 128 kb/s
      Metadata:
        encoder         : Lavc61.19.101 libopus
frame=   16 fps=0.0 q=0.0 size=N/A time=00:00:00.49 bitrate=N/A speed=0.995x    frame=   31 fps= 31 q=1.0 size=N/A time=00:00:00.99 bitrate=N/A speed=0.997x    frame=   45 fps= 30 q=0.0 size=N/A time=00:00:01.47 bitrate=N/A dup=2 drop=0 speed=0.985x    frame=   61 fps= 30 q=0.0 size=N/A time=00:00:01.97 bitrate=N/A dup=2 drop=1 speed=0.987x    frame=   77 fps= 31 q=0.0 size=N/A time=00:00:02.49 bitrate=N/A dup=2 drop=1 speed=0.998x    frame=   91 fps= 30 q=0.0 size=N/A time=00:00:02.97 bitrate=N/A dup=2 drop=1 speed=0.991x    frame=  107 fps= 31 q=0.0 size=N/A time=00:00:03.47 bitrate=N/A dup=2 drop=1 speed=0.993x    frame=  121 fps= 30 q=0.0 size=N/A time=00:00:03.99 bitrate=N/A dup=2 drop=1 speed=0.998x    frame=  137 fps= 30 q=0.0 size=N/A time=00:00:04.47 bitrate=N/A dup=2 drop=1 speed=0.994x    frame=  152 fps= 30 q=0.0 size=N/A time=00:00:04.99 bitrate=N/A dup=2 drop=1 speed=0.998x    frame=  167 fps= 30 q=0.0 size=N/A time=00:00:05.49 bitrate=N/A dup=2 drop=1 speed=0.999x    frame=  182 fps= 30 q=0.0 size=N/A time=00:00:05.99 bitrate=N/A dup=2 drop=1 speed=0.999x    frame=  197 fps= 30 q=0.0 size=N/A time=00:00:06.49 bitrate=N/A dup=2 drop=1 speed=0.999x    frame=  212 fps= 30 q=0.0 size=N/A time=00:00:06.99 bitrate=N/A dup=2 drop=1 speed=0.999x    frame=  227 fps= 30 q=0.0 size=N/A time=00:00:07.49 bitrate=N/A dup=2 drop=1 speed=0.999x    frame=  242 fps= 30 q=0.0 size=N/A time=00:00:07.99 bitrate=N/A dup=2 drop=1 speed=0.999x    frame=  257 fps= 30 q=0.0 size=N/A time=00:00:08.49 bitrate=N/A dup=2 drop=1 speed=0.999x    frame=  272 fps= 30 q=0.0 size=N/A time=00:00:08.99 bitrate=N/A dup=2 drop=1 speed=0.999x    frame=  287 fps= 30 q=0.0 size=N/A time=00:00:09.49 bitrate=N/A dup=2 drop=1 speed=0.999x    frame=  302 fps= 30 q=0.0 size=N/A time=00:00:09.99 bitrate=N/A dup=2 drop=1 speed=0.999x    frame=  317 fps= 30 q=0.0 size=N/A time=00:00:10.49 bitrate=N/A dup=2 drop=1 speed=0.999x    frame=  332 fps= 30 q=0.0 size=N/A time=00:00:10.99 bitrate=N/A dup=2 drop=1 speed=0.999x    frame=  347 fps= 30 q=0.0 size=N/A time=00:00:11.49 bitrate=N/A dup=2 drop=1 speed=0.999x    frame=  362 fps= 30 q=0.0 size=N/A time=00:00:11.99 bitrate=N/A dup=2 drop=1 speed=0.999x    frame=  377 fps= 30 q=0.0 size=N/A time=00:00:12.49 bitrate=N/A dup=2 drop=1 speed=0.999x    frame=  392 fps= 30 q=0.0 size=N/A time=00:00:12.99 bitrate=N/A dup=2 drop=1 speed=0.999x    frame=  407 fps= 30 q=0.0 size=N/A time=00:00:13.49 bitrate=N/A dup=2 drop=1 speed=0.999x    frame=  422 fps= 30 q=0.0 size=N/A time=00:00:13.99 bitrate=N/A dup=2 drop=1 speed=0.999x    frame=  437 fps= 30 q=0.0 size=N/A time=00:00:14.49 bitrate=N/A dup=2 drop=1 speed=0.999x    frame=  452 fps= 30 q=0.0 size=N/A time=00:00:14.99 bitrate=N/A dup=2 drop=1 speed=0.999x    frame=  467 fps= 30 q=0.0 size=N/A time=00:00:15.49 bitrate=N/A dup=2 drop=1 speed=0.999x    frame=  482 fps= 30 q=0.0 size=N/A time=00:00:15.99 bitrate=N/A dup=2 drop=1 speed=0.999x    frame=  497 fps= 30 q=0.0 size=N/A time=00:00:16.49 bitrate=N/A dup=2 drop=1 speed=0.999x    frame=  512 fps= 30 q=0.0 size=N/A time=00:00:16.99 bitrate=N/A dup=2 drop=1 speed=0.999x    frame=  527 fps= 30 q=0.0 size=N/A time=00:00:17.49 bitrate=N/A dup=2 drop=1 speed=0.999x    frame=  542 fps= 30 q=0.0 size=N/A time=00:00:17.99 bitrate=N/A dup=2 drop=1 speed=0.999x    frame=  557 fps= 30 q=0.0 size=N/A time=00:00:18.49 bitrate=N/A dup=2 drop=1 speed=0.999x    frame=  572 fps= 30 q=0.0 size=N/A time=00:00:18.99 bitrate=N/A dup=2 drop=1 speed=0.999x    frame=  587 fps= 30 q=0.0 size=N/A time=00:00:19.49 bitrate=N/A dup=2 drop=1 speed=0.999x    frame=  602 fps= 30 q=0.0 size=N/A time=00:00:19.99 bitrate=N/A dup=2 drop=1 speed=0.999x    frame=  617 fps= 30 q=0.0 size=N/A time=00:00:20.49 bitrate=N/A dup=2 drop=1 speed=0.999x    frame=  632 fps= 30 q=0.0 size=N/A time=00:00:20.99 bitrate=N/A dup=2 drop=1 speed=0.999x    frame=  647 fps= 30 q=0.0 size=N/A time=00:00:21.49 bitrate=N/A dup=2 drop=1 speed=0.999x    frame=  662 fps= 30 q=0.0 size=N/A time=00:00:21.99 bitrate=N/A dup=2 drop=1 speed=0.999x    frame=  677 fps= 30 q=0.0 size=N/A time=00:00:22.49 bitrate=N/A dup=2 drop=1 speed=0.999x    frame=  692 fps= 30 q=0.0 size=N/A time=00:00:22.99 bitrate=N/A dup=2 drop=1 speed=0.999x    frame=  706 fps= 30 q=0.0 size=N/A time=00:00:23.49 bitrate=N/A dup=2 drop=1 speed=0.999x    frame=  721 fps= 30 q=0.0 size=N/A time=00:00:23.99 bitrate=N/A dup=2 drop=1 speed=0.999x    frame=  736 fps= 30 q=0.0 size=N/A time=00:00:24.49 bitrate=N/A dup=2 drop=1 speed=0.999x    frame=  752 fps= 30 q=0.0 size=N/A time=00:00:24.99 bitrate=N/A dup=2 drop=1 speed=0.999x    frame=  767 fps= 30 q=0.0 size=N/A time=00:00:25.49 bitrate=N/A dup=2 drop=1 speed=0.999x    frame=  782 fps= 30 q=0.0 size=N/A time=00:00:25.99 bitrate=N/A dup=2 drop=1 speed=0.999x    frame=  797 fps= 30 q=0.0 size=N/A time=00:00:26.49 bitrate=N/A dup=2 drop=1 speed=0.999x    frame=  812 fps= 30 q=0.0 size=N/A time=00:00:26.99 bitrate=N/A dup=2 drop=1 speed=0.999x    frame=  827 fps= 30 q=0.0 size=N/A time=00:00:27.49 bitrate=N/A dup=2 drop=1 speed=0.999x    frame=  842 fps= 30 q=0.0 size=N/A time=00:00:27.99 bitrate=N/A dup=2 drop=1 speed=0.999x    frame=  857 fps= 30 q=0.0 size=N/A time=00:00:28.49 bitrate=N/A dup=2 drop=1 speed=0.999x    frame=  872 fps= 30 q=0.0 size=N/A time=00:00:28.99 bitrate=N/A dup=2 drop=1 speed=0.999x    frame=  887 fps= 30 q=0.0 size=N/A time=00:00:29.49 bitrate=N/A dup=2 drop=1 speed=0.999x    frame=  902 fps= 30 q=0.0 size=N/A time=00:00:29.99 bitrate=N/A dup=2 drop=1 speed=0.999x    frame=  917 fps= 30 q=0.0 size=N/A time=00:00:30.49 bitrate=N/A dup=2 drop=1 speed=   1x    frame=  932 fps= 30 q=0.0 size=N/A time=00:00:30.99 bitrate=N/A dup=2 drop=1 speed=   1x    frame=  947 fps= 30 q=0.0 size=N/A time=00:00:31.49 bitrate=N/A dup=2 drop=1 speed=   1x    frame=  962 fps= 30 q=0.0 size=N/A time=00:00:31.99 bitrate=N/A dup=2 drop=1 speed=   1x    frame=  977 fps= 30 q=0.0 size=N/A time=00:00:32.49 bitrate=N/A dup=2 drop=1 speed=   1x    frame=  992 fps= 30 q=0.0 size=N/A time=00:00:32.99 bitrate=N/A dup=2 drop=1 speed=   1x    frame= 1007 fps= 30 q=0.0 size=N/A time=00:00:33.49 bitrate=N/A dup=2 drop=1 speed=   1x    frame= 1022 fps= 30 q=0.0 size=N/A time=00:00:33.99 bitrate=N/A dup=2 drop=1 speed=   1x    frame= 1037 fps= 30 q=0.0 size=N/A time=00:00:34.49 bitrate=N/A dup=2 drop=1 speed=   1x    frame= 1052 fps= 30 q=0.0 size=N/A time=00:00:34.99 bitrate=N/A dup=2 drop=1 speed=   1x    frame= 1067 fps= 30 q=0.0 size=N/A time=00:00:35.49 bitrate=N/A dup=2 drop=1 speed=   1x    frame= 1082 fps= 30 q=0.0 size=N/A time=00:00:35.99 bitrate=N/A dup=2 drop=1 speed=   1x    frame= 1097 fps= 30 q=0.0 size=N/A time=00:00:36.49 bitrate=N/A dup=2 drop=1 speed=   1x    frame= 1112 fps= 30 q=0.0 size=N/A time=00:00:36.99 bitrate=N/A dup=2 drop=1 speed=   1x    frame= 1127 fps= 30 q=0.0 size=N/A time=00:00:37.49 bitrate=N/A dup=2 drop=1 speed=   1x    frame= 1142 fps= 30 q=0.0 size=N/A time=00:00:37.99 bitrate=N/A dup=2 drop=1 speed=   1x    frame= 1157 fps= 30 q=0.0 size=N/A time=00:00:38.49 bitrate=N/A dup=2 drop=1 speed=   1x    frame= 1172 fps= 30 q=0.0 size=N/A time=00:00:38.99 bitrate=N/A dup=2 drop=1 speed=   1x    frame= 1187 fps= 30 q=0.0 size=N/A time=00:00:39.49 bitrate=N/A dup=2 drop=1 speed=   1x    frame= 1202 fps= 30 q=0.0 size=N/A time=00:00:39.99 bitrate=N/A dup=2 drop=1 speed=   1x    frame= 1217 fps= 30 q=0.0 size=N/A time=00:00:40.49 bitrate=N/A dup=2 drop=1 speed=   1x    frame= 1232 fps= 30 q=0.0 size=N/A time=00:00:40.99 bitrate=N/A dup=2 drop=1 speed=   1x    frame= 1247 fps= 30 q=0.0 size=N/A time=00:00:41.49 bitrate=N/A dup=2 drop=1 speed=   1x    frame= 1262 fps= 30 q=0.0 size=N/A time=00:00:41.99 bitrate=N/A dup=2 drop=1 speed=   1x    frame= 1277 fps= 30 q=0.0 size=N/A time=00:00:42.49 bitrate=N/A dup=2 drop=1 speed=   1x    frame= 1292 fps= 30 q=0.0 size=N/A time=00:00:42.99 bitrate=N/A dup=2 drop=1 speed=   1x    frame= 1307 fps= 30 q=0.0 size=N/A time=00:00:43.49 bitrate=N/A dup=2 drop=1 speed=   1x    frame= 1322 fps= 30 q=0.0 size=N/A time=00:00:43.99 bitrate=N/A dup=2 drop=1 speed=   1x    frame= 1337 fps= 30 q=0.0 size=N/A time=00:00:44.51 bitrate=N/A dup=2 drop=1 speed=   1x    frame= 1352 fps= 30 q=0.0 size=N/A time=00:00:44.99 bitrate=N/A dup=2 drop=1 speed=   1x    frame= 1367 fps= 30 q=0.0 size=N/A time=00:00:45.51 bitrate=N/A dup=2 drop=1 speed=   1x    frame= 1382 fps= 30 q=0.0 size=N/A time=00:00:46.01 bitrate=N/A dup=2 drop=1 speed=   1x    frame= 1397 fps= 30 q=0.0 size=N/A time=00:00:46.49 bitrate=N/A dup=2 drop=1 speed=   1x    frame= 1407 fps= 30 q=0.0 size=N/A time=00:00:46.90 bitrate=N/A dup=3 drop=1 speed=0.997x    frame= 1426 fps= 30 q=0.0 size=N/A time=00:00:47.51 bitrate=N/A dup=10 drop=1 speed=   1x    frame= 1442 fps= 30 q=0.0 size=N/A time=00:00:48.01 bitrate=N/A dup=10 drop=9 speed=   1x    frame= 1457 fps= 30 q=0.0 size=N/A time=00:00:48.51 bitrate=N/A dup=10 drop=9 speed=   1x    frame= 1472 fps= 30 q=0.0 size=N/A time=00:00:49.01 bitrate=N/A dup=10 drop=9 speed=   1x    frame= 1487 fps= 30 q=0.0 size=N/A time=00:00:49.51 bitrate=N/A dup=10 drop=9 speed=   1x    frame= 1502 fps= 30 q=0.0 size=N/A time=00:00:50.01 bitrate=N/A dup=10 drop=9 speed=   1x    frame= 1517 fps= 30 q=0.0 size=N/A time=00:00:50.51 bitrate=N/A dup=10 drop=9 speed=   1x    frame= 1532 fps= 30 q=0.0 size=N/A time=00:00:51.01 bitrate=N/A dup=10 drop=9 speed=   1x    frame= 1547 fps= 30 q=0.0 size=N/A time=00:00:51.51 bitrate=N/A dup=10 drop=9 speed=   1x    frame= 1562 fps= 30 q=0.0 size=N/A time=00:00:52.01 bitrate=N/A dup=10 drop=9 speed=   1x    frame= 1578 fps= 30 q=0.0 size=N/A time=00:00:52.51 bitrate=N/A dup=10 drop=9 speed=   1x    frame= 1593 fps= 30 q=0.0 size=N/A time=00:00:53.01 bitrate=N/A dup=10 drop=9 speed=   1x    frame= 1608 fps= 30 q=0.0 size=N/A time=00:00:53.51 bitrate=N/A dup=10 drop=9 speed=   1x    frame= 1622 fps= 30 q=0.0 size=N/A time=00:00:54.01 bitrate=N/A dup=10 drop=9 speed=   1x    frame= 1638 fps= 30 q=0.0 size=N/A time=00:00:54.51 bitrate=N/A dup=10 drop=9 speed=   1x    frame= 1653 fps= 30 q=0.0 size=N/A time=00:00:55.01 bitrate=N/A dup=10 drop=9 speed=   1x    frame= 1667 fps= 30 q=0.0 size=N/A time=00:00:55.51 bitrate=N/A dup=10 drop=9 speed=   1x    frame= 1682 fps= 30 q=0.0 size=N/A time=00:00:56.01 bitrate=N/A dup=10 drop=9 speed=   1x    frame= 1698 fps= 30 q=0.0 size=N/A time=00:00:56.51 bitrate=N/A dup=10 drop=9 speed=   1x    frame= 1712 fps= 30 q=0.0 size=N/A time=00:00:57.01 bitrate=N/A dup=10 drop=9 speed=   1x    frame= 1728 fps= 30 q=0.0 size=N/A time=00:00:57.51 bitrate=N/A dup=10 drop=9 speed=   1x    frame= 1743 fps= 30 q=0.0 size=N/A time=00:00:58.01 bitrate=N/A dup=10 drop=9 speed=   1x    frame= 1757 fps= 30 q=0.0 size=N/A time=00:00:58.51 bitrate=N/A dup=10 drop=9 speed=   1x    frame= 1773 fps= 30 q=0.0 size=N/A time=00:00:59.01 bitrate=N/A dup=10 drop=9 speed=   1x    frame= 1788 fps= 30 q=0.0 size=N/A time=00:00:59.51 bitrate=N/A dup=10 drop=9 speed=   1x    frame= 1802 fps= 30 q=0.0 size=N/A time=00:01:00.03 bitrate=N/A dup=10 drop=9 speed=   1x    frame= 1817 fps= 30 q=0.0 size=N/A time=00:01:00.51 bitrate=N/A dup=10 drop=9 speed=   1x    frame= 1833 fps= 30 q=0.0 size=N/A time=00:01:01.03 bitrate=N/A dup=10 drop=9 speed=   1x    frame= 1847 fps= 30 q=0.0 size=N/A time=00:01:01.51 bitrate=N/A dup=10 drop=9 speed=   1x    frame= 1863 fps= 30 q=0.0 size=N/A time=00:01:02.03 bitrate=N/A dup=10 drop=9 speed=   1x    frame= 1878 fps= 30 q=0.0 size=N/A time=00:01:02.51 bitrate=N/A dup=10 drop=9 speed=   1x    frame= 1893 fps= 30 q=0.0 size=N/A time=00:01:03.03 bitrate=N/A dup=10 drop=9 speed=   1x    frame= 1908 fps= 30 q=0.0 size=N/A time=00:01:03.51 bitrate=N/A dup=10 drop=9 speed=   1x    frame= 1923 fps= 30 q=0.0 size=N/A time=00:01:04.01 bitrate=N/A dup=10 drop=9 speed=   1x    frame= 1938 fps= 30 q=0.0 size=N/A time=00:01:04.51 bitrate=N/A dup=10 drop=9 speed=   1x    frame= 1953 fps= 30 q=0.0 size=N/A time=00:01:05.03 bitrate=N/A dup=10 drop=9 speed=   1x    frame= 1967 fps= 30 q=0.0 size=N/A time=00:01:05.51 bitrate=N/A dup=10 drop=9 speed=   1x    frame= 1983 fps= 30 q=0.0 size=N/A time=00:01:06.03 bitrate=N/A dup=10 drop=9 speed=   1x    frame= 1998 fps= 30 q=0.0 size=N/A time=00:01:06.51 bitrate=N/A dup=10 drop=9 speed=   1x    frame= 2013 fps= 30 q=0.0 size=N/A time=00:01:07.03 bitrate=N/A dup=10 drop=9 speed=   1x    frame= 2028 fps= 30 q=0.0 size=N/A time=00:01:07.51 bitrate=N/A dup=10 drop=9 speed=   1x    frame= 2043 fps= 30 q=0.0 size=N/A time=00:01:08.03 bitrate=N/A dup=10 drop=9 speed=   1x    frame= 2058 fps= 30 q=0.0 size=N/A time=00:01:08.51 bitrate=N/A dup=10 drop=9 speed=   1x    frame= 2073 fps= 30 q=0.0 size=N/A time=00:01:09.03 bitrate=N/A dup=10 drop=9 speed=   1x    frame= 2088 fps= 30 q=0.0 size=N/A time=00:01:09.51 bitrate=N/A dup=10 drop=9 speed=   1x    frame= 2103 fps= 30 q=0.0 size=N/A time=00:01:10.01 bitrate=N/A dup=10 drop=9 speed=   1x    frame= 2118 fps= 30 q=0.0 size=N/A time=00:01:10.51 bitrate=N/A dup=10 drop=9 speed=   1x    frame= 2133 fps= 30 q=0.0 size=N/A time=00:01:11.01 bitrate=N/A dup=10 drop=9 speed=   1x    frame= 2148 fps= 30 q=0.0 size=N/A time=00:01:11.51 bitrate=N/A dup=10 drop=9 speed=   1x    frame= 2163 fps= 30 q=0.0 size=N/A time=00:01:12.01 bitrate=N/A dup=10 drop=9 speed=   1x    frame= 2178 fps= 30 q=0.0 size=N/A time=00:01:12.51 bitrate=N/A dup=10 drop=9 speed=   1x    frame= 2193 fps= 30 q=0.0 size=N/A time=00:01:13.03 bitrate=N/A dup=10 drop=9 speed=   1x    frame= 2208 fps= 30 q=0.0 size=N/A time=00:01:13.51 bitrate=N/A dup=10 drop=9 speed=   1x    frame= 2223 fps= 30 q=0.0 size=N/A time=00:01:14.03 bitrate=N/A dup=10 drop=9 speed=   1x    frame= 2238 fps= 30 q=0.0 size=N/A time=00:01:14.53 bitrate=N/A dup=10 drop=9 speed=   1x    frame= 2253 fps= 30 q=0.0 size=N/A time=00:01:15.03 bitrate=N/A dup=10 drop=9 speed=   1x    frame= 2268 fps= 30 q=0.0 size=N/A time=00:01:15.51 bitrate=N/A dup=10 drop=9 speed=   1x    frame= 2283 fps= 30 q=0.0 size=N/A time=00:01:16.03 bitrate=N/A dup=10 drop=9 speed=   1x    frame= 2298 fps= 30 q=0.0 size=N/A time=00:01:16.53 bitrate=N/A dup=10 drop=9 speed=   1x    frame= 2313 fps= 30 q=0.0 size=N/A time=00:01:17.01 bitrate=N/A dup=10 drop=9 speed=   1x    frame= 2328 fps= 30 q=0.0 size=N/A time=00:01:17.51 bitrate=N/A dup=10 drop=9 speed=   1x    frame= 2343 fps= 30 q=0.0 size=N/A time=00:01:18.01 bitrate=N/A dup=10 drop=9 speed=   1x    frame= 2358 fps= 30 q=0.0 size=N/A time=00:01:18.53 bitrate=N/A dup=10 drop=9 speed=   1x    frame= 2373 fps= 30 q=0.0 size=N/A time=00:01:19.03 bitrate=N/A dup=10 drop=9 speed=   1x    frame= 2388 fps= 30 q=0.0 size=N/A time=00:01:19.51 bitrate=N/A dup=10 drop=9 speed=   1x    frame= 2403 fps= 30 q=0.0 size=N/A time=00:01:20.03 bitrate=N/A dup=10 drop=9 speed=   1x    frame= 2418 fps= 30 q=0.0 size=N/A time=00:01:20.53 bitrate=N/A dup=10 drop=9 speed=   1x    frame= 2433 fps= 30 q=0.0 size=N/A time=00:01:21.03 bitrate=N/A dup=10 drop=9 speed=   1x    frame= 2448 fps= 30 q=0.0 size=N/A time=00:01:21.53 bitrate=N/A dup=10 drop=9 speed=   1x    frame= 2463 fps= 30 q=0.0 size=N/A time=00:01:22.03 bitrate=N/A dup=10 drop=9 speed=   1x    frame= 2478 fps= 30 q=0.0 size=N/A time=00:01:22.53 bitrate=N/A dup=10 drop=9 speed=   1x    frame= 2493 fps= 30 q=0.0 size=N/A time=00:01:23.03 bitrate=N/A dup=10 drop=9 speed=   1x    frame= 2508 fps= 30 q=0.0 size=N/A time=00:01:23.51 bitrate=N/A dup=10 drop=9 speed=   1x    frame= 2523 fps= 30 q=0.0 size=N/A time=00:01:24.03 bitrate=N/A dup=10 drop=9 speed=   1x    frame= 2538 fps= 30 q=0.0 size=N/A time=00:01:24.53 bitrate=N/A dup=10 drop=9 speed=   1x    frame= 2553 fps= 30 q=0.0 size=N/A time=00:01:25.03 bitrate=N/A dup=10 drop=9 speed=   1x    frame= 2568 fps= 30 q=0.0 size=N/A time=00:01:25.53 bitrate=N/A dup=10 drop=9 speed=   1x    frame= 2583 fps= 30 q=0.0 size=N/A time=00:01:26.03 bitrate=N/A dup=10 drop=9 speed=   1x    frame= 2598 fps= 30 q=0.0 size=N/A time=00:01:26.53 bitrate=N/A dup=10 drop=9 speed=   1x    frame= 2613 fps= 30 q=0.0 size=N/A time=00:01:27.03 bitrate=N/A dup=10 drop=9 speed=   1x    frame= 2628 fps= 30 q=0.0 size=N/A time=00:01:27.51 bitrate=N/A dup=10 drop=9 speed=   1x    frame= 2643 fps= 30 q=0.0 size=N/A time=00:01:28.03 bitrate=N/A dup=10 drop=9 speed=   1x    